# Blender v2.93.6 OBJ File: ''
# www.blender.org
mtllib BoxPlat.mtl
o Куб
v 2.209887 2.203779 0.256069
v -2.274611 2.203779 0.256069
v 2.209887 2.203779 -0.256069
v -2.274611 2.203779 -0.256069
v 3.329271 3.362096 0.383904
v -3.393995 3.362096 0.383904
v 3.329271 3.362096 -0.383904
v -3.393995 3.362096 -0.383904
vt 0.375000 0.000000
vt 0.625000 0.000000
vt 0.625000 0.250000
vt 0.375000 0.250000
vt 0.625000 0.500000
vt 0.375000 0.500000
vt 0.625000 0.750000
vt 0.375000 0.750000
vt 0.625000 1.000000
vt 0.375000 1.000000
vt 0.125000 0.500000
vt 0.125000 0.750000
vt 0.875000 0.500000
vt 0.875000 0.750000
vn 0.0000 -1.0000 0.0000
vn 0.0000 -0.1097 -0.9940
vn 0.0000 1.0000 0.0000
vn 0.0000 -0.1097 0.9940
vn 0.7191 -0.6949 0.0000
vn -0.7191 -0.6949 0.0000
g Куб_Куб_None
usemtl None
s off
f 1/1/1 2/2/1 4/3/1 3/4/1
f 3/4/2 4/3/2 8/5/2 7/6/2
f 7/6/3 8/5/3 6/7/3 5/8/3
f 5/8/4 6/7/4 2/9/4 1/10/4
f 3/11/5 7/6/5 5/8/5 1/12/5
f 8/5/6 4/13/6 2/14/6 6/7/6
o Куб.001
v -2.251523 -2.193805 0.256069
v 2.232975 -2.193805 0.256069
v -2.251523 -2.193805 -0.256069
v 2.232975 -2.193805 -0.256069
v -3.370908 -3.352123 0.383904
v 3.352359 -3.352123 0.383904
v -3.370908 -3.352123 -0.383904
v 3.352359 -3.352123 -0.383904
vt 0.375000 0.000000
vt 0.625000 0.000000
vt 0.625000 0.250000
vt 0.375000 0.250000
vt 0.625000 0.500000
vt 0.375000 0.500000
vt 0.625000 0.750000
vt 0.375000 0.750000
vt 0.625000 1.000000
vt 0.375000 1.000000
vt 0.125000 0.500000
vt 0.125000 0.750000
vt 0.875000 0.500000
vt 0.875000 0.750000
vn 0.0000 1.0000 0.0000
vn 0.0000 0.1097 -0.9940
vn 0.0000 -1.0000 0.0000
vn 0.0000 0.1097 0.9940
vn -0.7191 0.6949 0.0000
vn 0.7191 0.6949 0.0000
g Куб.001_Куб.001_None
usemtl None
s off
f 9/15/7 10/16/7 12/17/7 11/18/7
f 11/18/8 12/17/8 16/19/8 15/20/8
f 15/20/9 16/19/9 14/21/9 13/22/9
f 13/22/10 14/21/10 10/23/10 9/24/10
f 11/25/11 15/20/11 13/22/11 9/26/11
f 16/19/12 12/27/12 10/28/12 14/21/12
o Куб.002
v 2.188931 -2.242249 0.256069
v 2.188931 2.242249 0.256069
v 2.188931 -2.242249 -0.256069
v 2.188931 2.242249 -0.256069
v 3.347249 -3.361633 0.383904
v 3.347249 3.361633 0.383904
v 3.347249 -3.361633 -0.383904
v 3.347249 3.361633 -0.383904
vt 0.375000 0.000000
vt 0.625000 0.000000
vt 0.625000 0.250000
vt 0.375000 0.250000
vt 0.625000 0.500000
vt 0.375000 0.500000
vt 0.625000 0.750000
vt 0.375000 0.750000
vt 0.625000 1.000000
vt 0.375000 1.000000
vt 0.125000 0.500000
vt 0.125000 0.750000
vt 0.875000 0.500000
vt 0.875000 0.750000
vn -1.0000 0.0000 0.0000
vn -0.1097 0.0000 -0.9940
vn 1.0000 0.0000 0.0000
vn -0.1097 0.0000 0.9940
vn -0.6949 -0.7191 0.0000
vn -0.6949 0.7191 0.0000
g Куб.002_Куб.002_None
usemtl None
s off
f 17/29/13 18/30/13 20/31/13 19/32/13
f 19/32/14 20/31/14 24/33/14 23/34/14
f 23/34/15 24/33/15 22/35/15 21/36/15
f 21/36/16 22/35/16 18/37/16 17/38/16
f 19/39/17 23/34/17 21/36/17 17/40/17
f 24/33/18 20/41/18 18/42/18 22/35/18
o Куб.003
v -2.207036 -2.242249 0.256069
v -2.207036 2.242249 0.256069
v -2.207036 -2.242249 -0.256069
v -2.207036 2.242249 -0.256069
v -3.365353 -3.361633 0.383904
v -3.365353 3.361633 0.383904
v -3.365353 -3.361633 -0.383904
v -3.365353 3.361633 -0.383904
vt 0.375000 0.000000
vt 0.375000 0.250000
vt 0.625000 0.250000
vt 0.625000 0.000000
vt 0.375000 0.500000
vt 0.625000 0.500000
vt 0.375000 0.750000
vt 0.625000 0.750000
vt 0.375000 1.000000
vt 0.625000 1.000000
vt 0.125000 0.500000
vt 0.125000 0.750000
vt 0.875000 0.750000
vt 0.875000 0.500000
vn 1.0000 0.0000 0.0000
vn 0.1097 0.0000 -0.9940
vn -1.0000 0.0000 0.0000
vn 0.1097 0.0000 0.9940
vn 0.6949 -0.7191 0.0000
vn 0.6949 0.7191 0.0000
g Куб.003_Куб.003_None
usemtl None
s off
f 25/43/19 27/44/19 28/45/19 26/46/19
f 27/44/20 31/47/20 32/48/20 28/45/20
f 31/47/21 29/49/21 30/50/21 32/48/21
f 29/49/22 25/51/22 26/52/22 30/50/22
f 27/53/23 25/54/23 29/49/23 31/47/23
f 32/48/24 30/50/24 26/55/24 28/56/24
