# Blender v2.93.6 OBJ File: ''
# www.blender.org
mtllib Platform2.mtl
o Cube
v -1.900021 -2.272381 0.248281
v -1.899958 -2.274238 -0.231165
v 2.080354 -2.272381 0.248805
v 2.080417 -2.274238 -0.230641
v -1.900019 2.250090 0.230758
v 2.080356 2.250090 0.231282
v -1.899956 2.248232 -0.248688
v 2.080420 2.248232 -0.248164
v 1.347302 -1.288991 -0.234555
v 1.347302 -1.288991 0.244898
v 0.375499 -1.674104 -0.233191
v 0.375499 -1.674104 0.246263
v 0.050050 -1.674104 -0.233234
v -0.375499 -1.674104 -0.233290
v -0.375499 -1.674104 0.246164
v 1.749836 -0.359248 -0.238105
v 1.749836 -0.359248 0.241349
v -1.347302 -1.288992 -0.234910
v -1.347302 -1.288992 0.244544
v -1.749836 -0.359248 -0.238565
v -1.749836 -0.359248 0.240888
v -1.749836 0.359248 -0.241349
v -1.749836 0.359248 0.238104
v 1.749836 0.359248 -0.240888
v 1.749836 0.359248 0.238565
v 1.347302 1.288992 -0.244544
v 1.347302 1.288992 0.234910
v 0.375499 1.674104 -0.246164
v 0.375499 1.674104 0.233289
v -1.347302 1.288991 -0.244898
v -1.347302 1.288991 0.234555
v -0.375499 1.674104 -0.246263
v -0.375499 1.674104 0.233191
vt 0.173765 0.561710
vt 0.193288 0.612493
vt 0.193288 0.637509
vt 0.206341 0.669880
vt 0.237855 0.683289
vt 0.262208 0.683289
vt 0.293722 0.669880
vt 0.306775 0.637509
vt 0.327053 0.694299
vt 0.173765 0.694299
vt 0.672947 0.561710
vt 0.693288 0.626666
vt 0.693288 0.637507
vt 0.706341 0.669878
vt 0.737855 0.683287
vt 0.762208 0.683287
vt 0.793722 0.669878
vt 0.806775 0.637507
vt 0.826235 0.694299
vt 0.672947 0.694299
vt 0.806775 0.612491
vt 0.793721 0.580120
vt 0.762208 0.566711
vt 0.737855 0.566711
vt 0.706341 0.580120
vt 0.693288 0.612491
vt 0.826235 0.561710
vt 0.306775 0.612493
vt 0.293722 0.580122
vt 0.262208 0.566713
vt 0.237855 0.566713
vt 0.206341 0.580122
vt 0.327053 0.561710
vn -0.0001 0.0039 1.0000
vn 0.0001 -0.0039 -1.0000
g Cube_Cube_Material
usemtl Material
s off
f 5/1/1 33/2/1 29/3/1 27/4/1 25/5/1 17/6/1 10/7/1 12/8/1 3/9/1 6/10/1
f 2/11/2 13/12/2 11/13/2 9/14/2 16/15/2 24/16/2 26/17/2 28/18/2 8/19/2 4/20/2
f 8/19/2 28/18/2 32/21/2 30/22/2 22/23/2 20/24/2 18/25/2 14/26/2 13/12/2 2/11/2 7/27/2
f 3/9/1 12/8/1 15/28/1 19/29/1 21/30/1 23/31/1 31/32/1 33/2/1 5/1/1 1/33/1
o Cube.001
v 0.375499 1.674104 -1.749836
v 1.749836 0.359248 -1.749836
v 1.347302 1.288991 -1.749836
v 1.749836 -0.359248 -1.749836
v 0.375499 -1.674104 -1.749836
v 1.347302 -1.288991 -1.749836
v 1.749836 0.359248 1.749836
v 0.375499 1.674104 1.749836
v 1.347302 1.288991 1.749836
v 0.375499 -1.674104 1.749836
v 1.749836 -0.359248 1.749836
v 1.347302 -1.288991 1.749836
v -1.749836 0.359248 -1.749836
v -0.375499 1.674104 -1.749836
v -1.347302 1.288991 -1.749836
v -0.375499 -1.674104 -1.749836
v -1.749836 -0.359248 -1.749836
v -1.347302 -1.288991 -1.749836
v -0.375499 1.674104 1.749836
v -1.749836 0.359248 1.749836
v -1.347302 1.288991 1.749836
v -1.749836 -0.359248 1.749836
v -0.375499 -1.674104 1.749836
v -1.347302 -1.288991 1.749836
vt 0.223176 0.500000
vt 0.276824 0.500000
vt 0.276824 0.750000
vt 0.223176 0.750000
vt 0.473176 0.000000
vt 0.526824 0.000000
vt 0.526824 0.250000
vt 0.473176 0.250000
vt 0.375000 0.848176
vt 0.403755 0.778755
vt 0.473176 0.750000
vt 0.526824 0.750000
vt 0.596245 0.778755
vt 0.625000 0.848176
vt 0.625000 0.901824
vt 0.596245 0.971245
vt 0.526824 1.000000
vt 0.473176 1.000000
vt 0.403755 0.971245
vt 0.375000 0.901824
vt 0.723176 0.500000
vt 0.776824 0.500000
vt 0.776824 0.750000
vt 0.723176 0.750000
vt 0.473176 0.500000
vt 0.526824 0.500000
vt 0.125000 0.750000
vt 0.125000 0.500000
vt 0.375000 0.250000
vt 0.375000 0.000000
vt 0.625000 0.750000
vt 0.625000 0.500000
vt 0.875000 0.500000
vt 0.875000 0.750000
vt 0.625000 0.000000
vt 0.625000 0.250000
vt 0.375000 0.500000
vt 0.375000 0.750000
vt 0.375000 0.348176
vt 0.403755 0.278755
vt 0.596245 0.278755
vt 0.625000 0.348176
vt 0.625000 0.401824
vt 0.596245 0.471245
vt 0.403755 0.471245
vt 0.375000 0.401824
vn 0.0000 -1.0000 0.0000
vn -1.0000 0.0000 0.0000
vn -0.0000 0.0000 1.0000
vn 0.0000 1.0000 0.0000
vn 1.0000 0.0000 0.0000
vn -0.3684 -0.9297 0.0000
vn -0.9177 -0.3973 0.0000
vn 0.3684 0.9297 0.0000
vn 0.9177 0.3973 0.0000
vn -0.3684 0.9297 0.0000
vn -0.9177 0.3973 0.0000
vn 0.3684 -0.9297 0.0000
vn 0.9177 -0.3973 0.0000
vn 0.0000 0.0000 -1.0000
g Cube.001_Cube.001_Material.001
usemtl Material.001
s off
f 49/34/3 38/35/3 43/36/3 56/37/3
f 55/38/4 53/39/4 46/40/4 50/41/4
f 43/42/5 45/43/5 44/44/5 40/45/5 42/46/5 41/47/5 52/48/5 54/49/5 53/50/5 55/51/5 57/52/5 56/53/5
f 34/54/6 47/55/6 52/56/6 41/57/6
f 37/58/7 35/59/7 40/45/7 44/44/7
f 49/34/8 56/37/8 57/60/8 51/61/8
f 51/62/9 57/63/9 55/38/9 50/41/9
f 34/54/10 41/57/10 42/64/10 36/65/10
f 36/65/11 42/64/11 40/45/11 35/59/11
f 52/56/12 47/55/12 48/66/12 54/67/12
f 54/68/13 48/69/13 46/40/13 53/39/13
f 43/36/14 38/35/14 39/70/14 45/71/14
f 45/71/15 39/70/15 37/58/15 44/44/15
f 49/72/16 51/73/16 50/41/16 46/40/16 48/74/16 47/75/16 34/76/16 36/77/16 35/59/16 37/58/16 39/78/16 38/79/16
o Cube.002
v -1.900018 3.688810 0.225185
v -1.899955 3.686953 -0.254261
v 2.080357 3.688810 0.225709
v 2.080420 3.686953 -0.253737
v -1.900019 2.250089 0.230759
v 2.080356 2.250089 0.231283
v -1.899956 2.248232 -0.248687
v 2.080420 2.248232 -0.248163
vt 0.375000 0.055701
vt 0.625000 0.055701
vt 0.625000 0.188290
vt 0.375000 0.188290
vt 0.826235 0.561710
vt 0.875000 0.561710
vt 0.875000 0.694299
vt 0.826235 0.694299
vt 0.125000 0.561710
vt 0.173765 0.561710
vt 0.173765 0.694299
vt 0.125000 0.694299
vn 0.0000 1.0000 -0.0039
vn 0.0001 -0.0039 -1.0000
vn -0.0001 0.0039 1.0000
g Cube.002_Cube.002_Material
usemtl Material
s off
f 60/80/17 61/81/17 59/82/17 58/83/17
f 64/84/18 59/85/18 61/86/18 65/87/18
f 58/88/19 62/89/19 63/90/19 60/91/19
o Cube.003
v 2.080357 3.688810 0.225709
v 2.080420 3.686953 -0.253737
v 3.752602 2.248232 -0.247943
v 2.080356 2.250089 0.231283
v 3.752539 2.250089 0.231503
v 2.080420 2.248232 -0.248163
v 2.080420 3.686953 -0.253737
v 3.752602 2.248232 -0.247943
v 3.262831 3.265561 -0.251949
v 3.752539 2.250089 0.231503
v 2.080357 3.688810 0.225709
v 3.262769 3.267418 0.227497
vt 0.125000 0.694299
vt 0.173765 0.694299
vt 0.173765 0.750000
vt 0.173765 0.750000
vt 0.139283 0.733685
vt 0.125000 0.694299
vt 0.826235 0.694299
vt 0.875000 0.694299
vt 0.875000 0.694299
vt 0.860717 0.733685
vt 0.826235 0.750000
vt 0.826235 0.750000
vt 0.375000 0.951235
vt 0.625000 0.951235
vt 0.625000 0.951235
vt 0.375000 0.951235
vt 0.625000 1.000000
vt 0.375000 1.000000
vt 0.375000 0.000000
vt 0.625000 0.000000
vt 0.625000 0.055701
vt 0.375000 0.055701
vt 0.625000 0.055701
vt 0.375000 0.055701
vn -0.0001 0.0039 1.0000
vn 0.0001 -0.0039 -1.0000
vn 0.0000 0.0000 1.0000
vn 0.9010 0.4338 -0.0016
vn 0.3357 0.9420 -0.0036
g Cube.003_Cube.003_Material
usemtl Material
s off
f 66/92/20 69/93/20 70/94/20 75/95/20 77/96/20 76/97/20
f 71/98/21 67/99/21 72/100/21 74/101/21 73/102/21 68/103/21
f 70/104/22 68/105/22 73/106/22 75/107/22
f 75/107/23 73/106/23 74/108/23 77/109/23
f 77/110/24 74/111/24 72/112/24 76/113/24
f 76/113/22 72/112/22 67/114/22 66/115/22
o Cube.004
v 3.752599 -2.274238 -0.230422
v 3.752537 -2.272381 0.249024
v 2.080354 -2.272381 0.248804
v 2.080417 -2.274238 -0.230642
v 3.752602 2.248232 -0.247943
v 2.080356 2.250089 0.231283
v 3.752539 2.250089 0.231503
v 2.080420 2.248232 -0.248163
vt 0.173765 0.694299
vt 0.327053 0.694299
vt 0.327053 0.750000
vt 0.173765 0.750000
vt 0.375000 0.797947
vt 0.625000 0.797947
vt 0.625000 0.951235
vt 0.375000 0.951235
vt 0.672947 0.694299
vt 0.826235 0.694299
vt 0.826235 0.750000
vt 0.672947 0.750000
vn -0.0001 0.0039 1.0000
vn 1.0000 0.0000 0.0001
vn 0.0001 -0.0039 -1.0000
g Cube.004_Cube.004_Material
usemtl Material
s off
f 83/116/25 80/117/25 79/118/25 84/119/25
f 79/120/26 78/121/26 82/122/26 84/123/26
f 81/124/27 85/125/27 82/126/27 78/127/27
o Cube.005
v 2.080416 -3.688810 -0.225162
v 2.080353 -3.686953 0.254284
v 3.752599 -2.274238 -0.230422
v 3.752537 -2.272381 0.249024
v 2.080354 -2.272381 0.248804
v 2.080417 -2.274238 -0.230642
v 3.752599 -2.274238 -0.230422
v 2.080416 -3.688810 -0.225162
v 3.262828 -3.274492 -0.226611
v 2.080353 -3.686953 0.254284
v 3.752537 -2.272381 0.249024
v 3.262765 -3.272634 0.252835
vt 0.625000 0.694299
vt 0.672947 0.694299
vt 0.672947 0.750000
vt 0.672947 0.750000
vt 0.639043 0.733685
vt 0.625000 0.694299
vt 0.375000 0.694299
vt 0.375000 0.694299
vt 0.327053 0.694299
vt 0.360957 0.733685
vt 0.327053 0.750000
vt 0.327053 0.750000
vt 0.625000 0.797947
vt 0.375000 0.797947
vt 0.375000 0.750000
vt 0.625000 0.750000
vt 0.625000 0.797947
vt 0.375000 0.797947
vn 0.0001 -0.0039 -1.0000
vn 0.0000 0.0000 1.0000
vn -0.0001 0.0039 1.0000
vn 0.8981 -0.4398 0.0018
vn 0.3307 -0.9437 0.0037
g Cube.005_Cube.005_Material
usemtl Material
s off
f 86/128/28 91/129/28 88/130/28 92/131/28 94/132/28 93/133/28
f 87/134/29 86/128/29 93/133/29 95/135/29
f 90/136/30 87/134/30 95/135/30 97/137/30 96/138/30 89/139/30
f 92/140/31 96/141/31 97/142/31 94/143/31
f 94/143/32 97/142/32 95/135/32 93/133/32
f 96/141/29 92/140/29 88/144/29 89/145/29
o Cube.006
v -1.899959 -3.688810 -0.225685
v -1.900022 -3.686953 0.253761
v 2.080416 -3.688810 -0.225162
v 2.080353 -3.686953 0.254284
v -1.900021 -2.272381 0.248280
v -1.899958 -2.274238 -0.231166
v 2.080354 -2.272381 0.248804
v 2.080417 -2.274238 -0.230642
vt 0.375000 0.561710
vt 0.625000 0.561710
vt 0.625000 0.694299
vt 0.375000 0.694299
vt 0.327053 0.561710
vt 0.327053 0.694299
vt 0.672947 0.561710
vt 0.672947 0.694299
vn -0.0000 -1.0000 0.0039
vn -0.0001 0.0039 1.0000
vn 0.0001 -0.0039 -1.0000
g Cube.006_Cube.006_Material
usemtl Material
s off
f 99/146/33 98/147/33 100/148/33 101/149/33
f 102/150/34 99/146/34 101/149/34 104/151/34
f 98/147/35 103/152/35 105/153/35 100/148/35
o Cube.007
v -1.899959 -3.688810 -0.225685
v -1.900022 -3.686953 0.253761
v -3.752602 -2.272381 0.248037
v -3.752539 -2.274238 -0.231409
v -1.900021 -2.272381 0.248280
v -1.899958 -2.274238 -0.231166
v -1.899959 -3.688810 -0.225685
v -3.752539 -2.274238 -0.231409
v -3.209931 -3.274492 -0.227463
v -3.752602 -2.272381 0.248037
v -1.900022 -3.686953 0.253761
v -3.209994 -3.272634 0.251983
vt 0.625000 0.561710
vt 0.639043 0.518075
vt 0.672947 0.500000
vt 0.672947 0.500000
vt 0.672947 0.561710
vt 0.625000 0.561710
vt 0.375000 0.452053
vt 0.625000 0.452053
vt 0.625000 0.452053
vt 0.375000 0.452053
vt 0.327053 0.500000
vt 0.327053 0.500000
vt 0.360957 0.518075
vt 0.375000 0.561710
vt 0.375000 0.561710
vt 0.327053 0.561710
vt 0.375000 0.500000
vt 0.625000 0.500000
vn 0.0001 -0.0039 -1.0000
vn 0.0000 0.0000 1.0000
vn -0.0001 0.0039 1.0000
vn -0.3016 -0.9534 0.0037
vn -0.8790 -0.4768 0.0017
g Cube.007_Cube.007_Material
usemtl Material
s off
f 112/154/36 114/155/36 113/156/36 109/157/36 111/158/36 106/159/36
f 108/160/37 109/161/37 113/162/37 115/163/37
f 108/164/38 115/165/38 117/166/38 116/167/38 107/168/38 110/169/38
f 112/154/39 116/167/39 117/170/39 114/171/39
f 114/171/40 117/170/40 115/163/40 113/162/40
f 116/167/37 112/154/37 106/159/37 107/168/37
o Cube.008
v -3.752602 -2.272381 0.248037
v -3.752539 -2.274238 -0.231409
v -1.900021 -2.272381 0.248280
v -1.899958 -2.274238 -0.231166
v -3.752599 2.250089 0.230516
v -1.900019 2.250089 0.230759
v -3.752537 2.248232 -0.248931
v -1.899956 2.248232 -0.248687
vt 0.173765 0.500000
vt 0.327053 0.500000
vt 0.327053 0.561710
vt 0.173765 0.561710
vt 0.375000 0.298765
vt 0.625000 0.298765
vt 0.625000 0.452053
vt 0.375000 0.452053
vt 0.672947 0.500000
vt 0.826235 0.500000
vt 0.826235 0.561710
vt 0.672947 0.561710
vn -0.0001 0.0039 1.0000
vn -1.0000 0.0000 -0.0001
vn 0.0001 -0.0039 -1.0000
g Cube.008_Cube.008_Material
usemtl Material
s off
f 122/172/41 118/173/41 120/174/41 123/175/41
f 122/176/42 124/177/42 119/178/42 118/179/42
f 119/180/43 124/181/43 125/182/43 121/183/43
o Cube.009
v -1.900018 3.688810 0.225185
v -1.899955 3.686953 -0.254261
v -3.752599 2.250089 0.230516
v -1.900019 2.250089 0.230759
v -3.752537 2.248232 -0.248931
v -1.899956 2.248232 -0.248687
v -3.752537 2.248232 -0.248931
v -1.899955 3.686953 -0.254261
v -3.209927 3.265561 -0.252801
v -1.900018 3.688810 0.225185
v -3.752599 2.250089 0.230516
v -3.209990 3.267418 0.226646
vt 0.826235 0.500000
vt 0.826235 0.500000
vt 0.860717 0.518075
vt 0.875000 0.561710
vt 0.875000 0.561710
vt 0.826235 0.561710
vt 0.125000 0.561710
vt 0.139283 0.518075
vt 0.173765 0.500000
vt 0.173765 0.500000
vt 0.173765 0.561710
vt 0.125000 0.561710
vt 0.375000 0.188290
vt 0.625000 0.188290
vt 0.625000 0.188290
vt 0.375000 0.188290
vt 0.625000 0.298765
vt 0.375000 0.298765
vt 0.375000 0.250000
vt 0.625000 0.250000
vt 0.625000 0.298765
vt 0.375000 0.298765
vn 0.0001 -0.0039 -1.0000
vn -0.0001 0.0039 1.0000
vn 0.0000 0.0000 1.0000
vn -0.8823 0.4706 -0.0019
vn -0.3062 0.9520 -0.0037
g Cube.009_Cube.009_Material
usemtl Material
s off
f 130/184/44 132/185/44 134/186/44 133/187/44 127/188/44 131/189/44
f 135/190/45 137/191/45 136/192/45 128/193/45 129/194/45 126/195/45
f 126/196/46 127/197/46 133/198/46 135/199/46
f 132/200/47 136/201/47 137/202/47 134/203/47
f 134/203/48 137/202/48 135/199/48 133/198/48
f 136/201/46 132/200/46 130/204/46 128/205/46
